<svg width="909" height="325" viewBox="0 0 909 325" fill="none" xmlns="http://www.w3.org/2000/svg">
<path d="M2.49023 252.439C8.34961 229.686 16.6992 205.174 27.5391 178.904C34.4727 162.303 41.8945 146.482 49.8047 131.443C57.7148 116.404 64.2578 105.662 69.4336 99.2168C70.9961 97.459 72.8027 96.043 74.8535 94.9688C76.2207 94.2852 77.1973 93.8945 77.7832 93.7969C78.4668 93.6992 79.2969 93.7969 80.2734 94.0898C82.7148 94.8711 84.5703 96.9219 85.8398 100.242C86.8164 102.391 87.5 105.467 87.8906 109.471C88.2812 113.377 88.5254 119.432 88.623 127.635C88.8184 136.131 88.7207 144.285 88.3301 152.098C88.0371 159.812 87.2559 171.678 85.9863 187.693C84.9121 200.486 84.1309 210.301 83.6426 217.137C83.1543 223.973 82.8125 229.588 82.6172 233.982C82.4219 238.279 82.2754 243.211 82.1777 248.777C81.9824 257.957 82.0312 265.379 82.3242 271.043C82.6172 276.707 83.252 281.932 84.2285 286.717C85.9863 294.822 88.2812 300.438 91.1133 303.562C91.9922 304.539 92.7246 305.174 93.3105 305.467C93.8965 305.76 94.8242 305.906 96.0938 305.906C101.074 305.906 107.568 301.219 115.576 291.844C130.322 274.461 145.215 251.854 160.254 224.021C175.293 196.092 188.525 167.283 199.951 137.596C211.377 107.811 218.945 81.3945 222.656 58.3477C223.047 56.1016 223.438 51.6582 223.828 45.0176C224.219 38.377 224.219 31.9805 223.828 25.8281C223.438 19.5781 222.217 15.9648 220.166 14.9883C218.701 16.6484 217.09 17.3809 215.332 17.1855C213.574 16.8926 211.914 15.8672 210.352 14.1094C209.57 13.1328 209.18 11.8633 209.18 10.3008C209.18 8.73828 209.619 7.41992 210.498 6.3457C212.744 3.31836 215.527 1.60938 218.848 1.21875C222.168 0.828125 224.658 2.87891 226.318 7.37109C227.49 11.5703 228.418 17.2344 229.102 24.3633C229.883 31.4922 230.127 37.6934 229.834 42.9668C228.271 63.084 223.584 85.1055 215.771 109.031C208.057 132.859 198.877 156.248 188.232 179.197C177.588 202.146 167.285 222.215 157.324 239.402C134.57 278.367 116.846 301.707 104.15 309.422C101.904 310.594 99.5117 311.277 96.9727 311.473C94.4336 311.766 92.334 311.521 90.6738 310.74C85.5957 308.006 81.8359 301.561 79.3945 291.404C78.125 286.229 77.2461 281.053 76.7578 275.877C76.2695 270.799 76.0254 263.914 76.0254 255.223C76.0254 249.559 76.0742 244.529 76.1719 240.135C76.3672 235.74 76.709 229.979 77.1973 222.85C77.6855 215.721 78.418 205.516 79.3945 192.234C80.3711 179.637 81.0547 169.676 81.4453 162.352C81.9336 155.027 82.2266 148.875 82.3242 143.895C82.4219 138.914 82.4219 133.689 82.3242 128.221C81.9336 109.471 80.5176 100.438 78.0762 101.121C76.3184 101.707 72.998 106.102 68.1152 114.305C63.3301 122.41 58.0078 132.566 52.1484 144.773C42.3828 165.477 33.9844 185.838 26.9531 205.857C20.0195 225.779 15.4297 242.576 13.1836 256.248C12.8906 258.006 12.7441 259.373 12.7441 260.35C12.8418 261.326 13.0859 262.449 13.4766 263.719C13.9648 265.086 14.209 266.062 14.209 266.648C14.209 267.332 14.0137 268.064 13.623 268.846C12.3535 271.678 10.4004 273.24 7.76367 273.533C5.12695 273.826 2.97852 272.752 1.31836 270.311C0.439453 268.943 0.0488281 266.893 0.146484 264.158C0.341797 261.424 1.12305 257.518 2.49023 252.439ZM214.6 162.938C215.967 161.668 217.578 161.18 219.434 161.473C221.387 161.668 222.9 162.547 223.975 164.109C225.049 165.965 225.244 168.309 224.561 171.141C223.877 173.875 222.559 175.779 220.605 176.854C219.531 177.342 218.359 178.709 217.09 180.955C215.918 183.104 214.453 186.57 212.695 191.355C208.008 203.953 207.129 211.961 210.059 215.379C210.547 215.867 211.084 216.209 211.67 216.404C212.256 216.502 213.33 216.502 214.893 216.404C221.924 215.721 235.01 208.201 254.15 193.846C270.068 181.932 278.027 174.412 278.027 171.287C278.027 168.162 279.492 165.867 282.422 164.402C285.449 162.938 288.33 163.182 291.064 165.135C292.139 166.209 292.725 167.625 292.822 169.383C293.018 171.043 292.725 172.557 291.943 173.924C291.455 174.705 290.771 175.486 289.893 176.268C289.014 177.049 288.086 177.781 287.109 178.465C286.23 179.051 285.547 179.344 285.059 179.344C284.277 179.344 282.666 180.125 280.225 181.688C277.783 183.152 274.072 185.789 269.092 189.598C242.529 209.324 225.391 219.92 217.676 221.385C215.82 221.873 214.355 222.117 213.281 222.117C212.207 222.117 211.035 221.873 209.766 221.385C209.082 221.092 208.398 220.75 207.715 220.359C206.934 219.871 206.348 219.383 205.957 218.895C204.98 217.82 204.199 216.307 203.613 214.354C202.93 212.4 202.588 210.545 202.588 208.787C202.588 206.834 202.93 204.148 203.613 200.73C204.297 197.215 205.176 193.748 206.25 190.33C207.812 185.35 208.936 181.541 209.619 178.904C210.303 176.268 210.645 174.217 210.645 172.752C210.645 171.092 211.035 169.285 211.816 167.332C212.598 165.379 213.525 163.914 214.6 162.938ZM232.91 146.971C231.836 149.021 230.371 150.34 228.516 150.926C226.66 151.512 224.756 151.268 222.803 150.193C220.85 148.826 219.775 147.02 219.58 144.773C219.482 142.527 220.117 140.477 221.484 138.621C222.852 136.668 224.707 135.691 227.051 135.691C229.785 135.691 231.836 136.961 233.203 139.5C234.375 141.844 234.277 144.334 232.91 146.971ZM267.92 252.879H267.334C264.014 252.879 262.354 250.584 262.354 245.994C262.354 243.846 262.744 241.16 263.525 237.938C264.307 234.715 265.674 229.637 267.627 222.703C269.58 215.77 271.582 208.787 273.633 201.756L273.926 200.73C275.195 196.531 276.221 193.26 277.002 190.916C277.686 188.475 278.174 186.668 278.467 185.496C278.662 184.324 278.76 183.396 278.76 182.713C278.76 181.346 278.613 180.516 278.32 180.223C278.125 179.051 278.027 177.928 278.027 176.854C278.027 172.85 279.688 169.92 283.008 168.064C284.18 167.674 285.254 167.479 286.23 167.479C289.16 167.479 290.625 169.871 290.625 174.656C290.625 178.855 289.697 182.859 287.842 186.668C284.717 192.918 279.883 206.541 273.34 227.537C270.508 236.521 268.896 242.82 268.506 246.434C276.123 238.816 283.936 229.686 291.943 219.041C299.951 208.396 306.201 198.973 310.693 190.77C309.033 189.012 308.203 187.742 308.203 186.961C308.203 185.984 308.789 185.154 309.961 184.471C310.547 184.08 311.23 183.885 312.012 183.885C312.402 183.885 312.939 184.031 313.623 184.324C314.307 184.52 314.99 184.617 315.674 184.617C318.506 184.617 323.193 183.201 329.736 180.369C337.158 177.244 341.602 174.07 343.066 170.848C343.848 169.48 344.824 168.357 345.996 167.479C347.266 166.502 348.438 166.014 349.512 166.014C350.488 166.014 351.465 166.355 352.441 167.039C353.418 167.723 354.102 168.602 354.492 169.676C354.883 170.652 355.078 171.629 355.078 172.605C355.078 173.484 354.736 174.51 354.053 175.682C352.881 177.537 346.582 180.516 335.156 184.617C328.809 186.863 322.559 188.768 316.406 190.33L314.355 194.432C311.328 200.877 304.98 210.545 295.312 223.436C282.129 241.111 273.535 250.682 269.531 252.146L267.92 252.879ZM346.729 209.08C345.654 209.08 344.58 208.982 343.506 208.787C336.865 207.615 332.959 204.1 331.787 198.24V197.068C331.787 190.525 335.01 183.25 341.455 175.242C347.9 167.234 354.785 162.254 362.109 160.301L363.281 160.154C364.062 160.154 365.088 160.594 366.357 161.473C369.678 163.621 371.338 166.99 371.338 171.58C371.338 174.51 370.361 178.025 368.408 182.127C366.553 186.131 363.818 189.598 360.205 192.527C358.545 193.699 357.08 194.285 355.811 194.285C354.053 194.285 352.539 193.309 351.27 191.355C350.977 190.867 350.732 190.33 350.537 189.744C350.439 189.158 350.342 188.377 350.244 187.4C350.244 186.424 350.244 185.057 350.244 183.299V180.809C350.244 177.488 349.951 175.828 349.365 175.828C348.975 175.828 348.486 176.121 347.9 176.707C344.482 180.027 341.748 184.08 339.697 188.865C338.135 192.283 337.354 195.066 337.354 197.215C337.354 201.121 340.918 203.074 348.047 203.074C355.078 203.074 364.16 199.803 375.293 193.26C382.715 188.963 389.453 184.324 395.508 179.344C400.977 174.656 404.102 171.141 404.883 168.797C405.273 167.918 405.713 167.088 406.201 166.307C407.178 164.744 408.691 163.963 410.742 163.963C411.914 163.963 413.477 164.451 415.43 165.428C417.676 166.6 418.799 168.406 418.799 170.848C418.799 172.996 416.992 175.047 413.379 177C411.719 177.781 407.52 180.32 400.781 184.617C380.762 198.094 365.82 205.76 355.957 207.615C352.051 208.592 348.975 209.08 346.729 209.08ZM358.887 183.885C362.988 178.709 365.039 174.168 365.039 170.262C365.039 168.113 364.502 167.039 363.428 167.039C362.646 167.039 362.256 167.723 362.256 169.09L362.402 172.605C362.402 174.07 361.963 175.535 361.084 177C360.107 178.855 359.521 180.467 359.326 181.834L358.887 183.885ZM411.475 246.434C408.447 246.434 406.299 245.213 405.029 242.771L404.883 242.625C404.59 241.844 404.443 241.209 404.443 240.721C404.443 239.744 405.078 237.4 406.348 233.689C417.09 203.611 424.658 183.982 429.053 174.803C429.541 173.826 429.785 173.191 429.785 172.898C429.785 172.703 429.736 172.605 429.639 172.605C429.248 172.605 427.979 173.973 425.83 176.707C421.143 182.762 416.016 188.816 410.449 194.871C399.805 206.395 392.773 212.156 389.355 212.156C387.598 212.156 386.182 211.18 385.107 209.227C384.521 208.25 384.229 207.127 384.229 205.857C384.229 202.635 386.963 197.02 392.432 189.012C397.803 180.809 403.955 173.436 410.889 166.893C415.576 162.303 419.092 159.324 421.436 157.957C422.803 157.273 424.072 156.932 425.244 156.932C426.123 156.932 426.904 157.078 427.588 157.371C428.369 157.664 429.004 157.908 429.492 158.104C429.98 158.299 430.273 158.396 430.371 158.396C430.566 158.396 431.592 157.078 433.447 154.441C441.357 143.113 447.217 133.152 451.025 124.559C455.127 115.281 458.057 109.568 459.814 107.42C460.791 106.248 461.914 105.662 463.184 105.662C463.281 105.662 463.672 105.711 464.355 105.809C465.039 105.809 465.674 106.492 466.26 107.859V108.299C466.26 111.814 461.865 121.287 453.076 136.717C449.951 142.088 445.898 150.291 440.918 161.326C432.617 179.881 426.221 195.994 421.729 209.666C417.236 223.338 414.99 231.102 414.99 232.957C414.99 233.543 415.479 234.471 416.455 235.74C417.432 236.912 417.92 238.328 417.92 239.988C417.92 241.648 417.236 243.162 415.869 244.529C414.6 245.799 413.135 246.434 411.475 246.434ZM395.361 200.145C395.557 200.145 396.338 199.461 397.705 198.094C401.416 194.578 405.664 190.037 410.449 184.471C417.48 176.463 420.996 172.02 420.996 171.141H420.85C420.166 171.141 418.555 172.312 416.016 174.656C409.18 181.004 403.76 187.01 399.756 192.674C398.975 193.943 398.291 194.969 397.705 195.75C396.045 198.094 395.215 199.412 395.215 199.705V199.998C395.215 200.096 395.264 200.145 395.361 200.145ZM514.746 199.705C517.676 198.045 521.045 196.189 524.854 194.139C528.76 192.088 532.129 190.281 534.961 188.719L545.068 183.592L548.877 174.803C555.225 160.545 562.695 144.725 571.289 127.342C573.438 123.045 575.244 119.383 576.709 116.355C578.174 113.23 578.906 111.619 578.906 111.521C578.906 111.326 578.76 111.18 578.467 111.082C578.271 110.984 577.979 110.936 577.588 110.936C576.221 110.936 574.854 110.154 573.486 108.592C572.217 106.932 571.582 105.271 571.582 103.611C571.582 101.561 574.268 96.043 579.639 87.0586C585.01 78.0742 591.016 69.041 597.656 59.959C603.711 51.8535 607.812 47.752 609.961 47.6543C612.109 47.3613 613.818 47.8984 615.088 49.2656C616.357 50.6328 616.797 52.3906 616.406 54.5391C616.406 56.2969 610.742 67.6738 599.414 88.6699C591.797 102.732 584.473 116.6 577.441 130.271C570.508 143.846 564.795 155.174 560.303 164.256C555.908 173.24 553.76 178.074 553.857 178.758C554.053 178.758 555.225 178.318 557.373 177.439C559.521 176.463 562.158 175.242 565.283 173.777C604.15 155.32 639.453 140.721 671.191 129.979L677.49 127.781L686.426 108.299C689.062 102.732 691.748 96.9219 694.482 90.8672C697.314 84.8125 699.609 79.9297 701.367 76.2188C705.273 67.8203 708.594 60.5937 711.328 54.5391C714.062 48.3867 715.43 45.1152 715.43 44.7246C715.332 44.627 715.088 44.6758 714.697 44.8711C714.307 45.0664 713.867 45.3105 713.379 45.6035C710.547 47.166 707.959 47.2148 705.615 45.75C703.369 44.1875 702.441 41.8437 702.832 38.7188C703.32 36.668 705.176 33.25 708.398 28.4648C711.621 23.582 714.99 19.1387 718.506 15.1348C720.654 12.8887 723.242 11.5703 726.27 11.1797C729.395 10.6914 731.836 11.6191 733.594 13.9629C735.352 16.3066 735.254 20.5547 733.301 26.707C732.617 28.9531 731.543 31.5898 730.078 34.6172C728.613 37.5469 726.611 41.4531 724.072 46.3359C719.58 54.832 712.5 69.0898 702.832 89.1094C691.504 112.84 685.938 124.803 686.133 124.998C686.23 125.096 686.768 125.047 687.744 124.852C688.721 124.559 689.844 124.217 691.113 123.826C701.562 120.701 713.428 117.82 726.709 115.184C739.99 112.449 752.246 110.447 763.477 109.178C768.164 108.689 773.34 108.445 779.004 108.445C784.766 108.445 788.867 108.641 791.309 109.031C797.461 110.887 800.537 113.67 800.537 117.381C800.537 120.213 799.365 122.166 797.021 123.24C794.873 124.217 792.969 124.217 791.309 123.24C789.746 122.166 788.77 120.408 788.379 117.967C788.281 117.088 788.135 116.453 787.939 116.062C787.842 115.574 787.598 115.232 787.207 115.037C786.816 114.842 786.133 114.646 785.156 114.451C780.566 113.377 772.705 113.328 761.572 114.305C750.439 115.281 738.574 117.137 725.977 119.871C721.875 120.75 716.504 122.068 709.863 123.826C703.223 125.486 697.168 127.098 691.699 128.66C686.328 130.223 683.35 131.199 682.764 131.59C682.568 131.883 681.592 134.031 679.834 138.035C678.076 141.941 675.928 146.629 673.389 152.098C670.947 157.566 668.604 162.791 666.357 167.771C664.209 172.654 662.646 176.219 661.67 178.465C651.611 201.609 641.992 224.998 632.812 248.631C623.73 272.166 617.432 289.842 613.916 301.658C613.135 304.197 612.598 306.102 612.305 307.371C612.109 308.641 612.109 309.471 612.305 309.861C612.598 310.35 613.135 310.691 613.916 310.887C615.186 311.277 616.26 312.156 617.139 313.523C618.311 315.281 618.555 317.088 617.871 318.943C617.285 320.799 615.918 322.312 613.77 323.484C612.695 323.973 611.279 324.217 609.521 324.217C607.764 324.217 606.348 323.973 605.273 323.484C604.102 322.898 603.32 322.02 602.93 320.848C602.539 319.676 602.393 318.016 602.49 315.867C602.588 314.402 602.881 312.693 603.369 310.74C603.857 308.885 604.688 306.199 605.859 302.684C607.129 299.266 608.887 294.48 611.133 288.328C625.781 247.996 645.068 200.877 668.994 146.971C670.557 143.455 671.826 140.525 672.803 138.182C673.779 135.838 674.268 134.617 674.268 134.52C673.975 134.52 671.826 135.252 667.822 136.717C663.916 138.084 659.326 139.744 654.053 141.697C648.779 143.65 644.043 145.457 639.844 147.117C615.332 156.883 590.479 168.064 565.283 180.662L549.17 188.865L547.119 193.113C546.533 194.48 545.605 196.629 544.336 199.559C543.164 202.391 541.943 205.418 540.674 208.641C539.404 211.766 538.281 214.549 537.305 216.99C536.426 219.334 535.986 220.604 535.986 220.799C535.986 220.896 536.084 221.043 536.279 221.238C536.572 221.336 536.914 221.482 537.305 221.678C541.016 222.459 542.871 224.803 542.871 228.709C542.871 229.588 542.48 230.76 541.699 232.225C541.016 233.592 539.6 235.984 537.451 239.402C534.424 244.188 532.129 247.459 530.566 249.217C529.004 250.877 527.588 251.707 526.318 251.707C523.682 251.707 522.363 249.998 522.363 246.58C522.363 241.209 527.295 226.512 537.158 202.488C538.037 200.145 538.77 198.191 539.355 196.629C540.039 194.969 540.381 194.09 540.381 193.992C539.893 193.895 537.012 195.311 531.738 198.24C526.465 201.17 520.166 204.832 512.842 209.227C505.518 213.621 498.535 217.869 491.895 221.971C482.324 228.025 476.318 231.346 473.877 231.932C471.826 232.225 470.068 231.736 468.604 230.467C467.041 229.197 466.26 227.537 466.26 225.486C466.26 223.533 467.92 220.896 471.24 217.576C474.463 214.158 478.711 210.643 483.984 207.029C489.062 203.514 492.92 201.512 495.557 201.023C498.193 200.535 500.537 201.414 502.588 203.66L504.346 205.418L514.746 199.705ZM717.334 206.297C715.479 206.297 714.062 206.053 713.086 205.564C708.984 203.416 706.934 199.266 706.934 193.113C706.934 188.621 707.91 182.811 709.863 175.682V175.535C709.863 175.438 709.814 175.389 709.717 175.389C709.521 175.389 707.617 177 704.004 180.223C695.703 187.645 689.355 191.355 684.961 191.355C682.422 191.355 680.566 190.037 679.395 187.4C678.906 186.033 678.662 184.568 678.662 183.006C678.662 178.807 680.664 174.021 684.668 168.65C692.09 160.154 699.805 155.906 707.812 155.906C712.891 155.906 716.699 157.811 719.238 161.619C719.629 162.205 719.824 163.084 719.824 164.256C719.824 167.576 719.238 169.969 718.066 171.434C716.895 172.898 715.82 175.193 714.844 178.318C712.891 184.666 711.914 189.793 711.914 193.699C711.914 196.336 712.598 198.436 713.965 199.998C714.941 201.17 716.113 201.756 717.48 201.756C722.07 201.756 730.322 197.068 742.236 187.693C746.631 184.178 749.707 181.297 751.465 179.051C753.223 176.707 754.102 174.412 754.102 172.166C754.102 169.822 754.688 168.211 755.859 167.332C757.031 166.453 758.154 166.014 759.229 166.014C761.084 166.014 762.402 166.941 763.184 168.797C763.574 169.969 763.77 171.092 763.77 172.166C763.77 175.389 762.793 177.586 760.84 178.758C759.961 179.148 757.617 181.004 753.809 184.324C747.754 189.598 741.846 194.236 736.084 198.24C730.322 202.146 725.928 204.539 722.9 205.418C721.143 206.004 719.287 206.297 717.334 206.297ZM685.107 185.789C687.256 185.789 691.211 183.25 696.973 178.172C701.953 173.777 704.883 170.604 705.762 168.65C706.055 167.967 706.201 166.99 706.201 165.721C706.201 163.963 705.322 163.084 703.564 163.084C701.904 163.084 699.707 163.963 696.973 165.721C691.406 169.334 687.549 173.631 685.4 178.611C684.326 181.053 683.789 182.908 683.789 184.178C683.789 185.252 684.229 185.789 685.107 185.789ZM783.838 218.748C779.834 218.748 776.807 217.381 774.756 214.646C773.096 212.4 772.266 208.006 772.266 201.463L772.412 194.871C772.412 188.719 771.729 184.373 770.361 181.834C769.092 179.295 765.82 177.342 760.547 175.975C754.883 174.314 752.051 171.238 752.051 166.746C752.051 165.184 752.344 163.475 752.93 161.619C754.102 158.006 755.957 155.223 758.496 153.27C760.352 151.902 762.207 151.219 764.062 151.219C764.844 151.219 765.576 151.316 766.26 151.512C770.166 152.879 772.119 155.955 772.119 160.74C772.119 162.889 771.826 164.842 771.24 166.6C770.557 169.529 770.215 171.434 770.215 172.312C770.215 173.582 770.898 174.559 772.266 175.242C774.707 177.391 776.221 179.783 776.807 182.42C777.1 183.982 777.344 188.572 777.539 196.189C777.734 204.881 778.174 209.812 778.857 210.984C779.639 212.547 781.201 213.328 783.545 213.328C787.061 213.328 791.602 211.229 797.168 207.029C805.469 200.682 812.598 193.797 818.555 186.375C824.512 178.855 827.881 172.605 828.662 167.625C828.857 166.16 829.346 164.598 830.127 162.938C831.396 160.008 833.105 158.543 835.254 158.543C835.938 158.543 836.67 158.738 837.451 159.129C839.404 160.398 840.381 162.254 840.381 164.695C840.381 164.988 840.332 165.916 840.234 167.479C840.137 168.943 838.916 170.652 836.572 172.605C835.498 173.289 833.887 175.193 831.738 178.318C824.121 189.744 815.088 199.607 804.639 207.908C795.654 215.135 788.721 218.748 783.838 218.748ZM758.789 167.918C759.766 167.918 760.986 166.648 762.451 164.109C763.33 162.156 763.77 160.643 763.77 159.568C763.77 158.787 763.574 158.396 763.184 158.396C762.5 158.396 761.719 158.982 760.84 160.154C759.961 161.326 759.277 162.547 758.789 163.816C758.398 164.988 758.203 165.965 758.203 166.746C758.203 167.527 758.398 167.918 758.789 167.918ZM830.127 162.938C831.494 161.668 833.105 161.18 834.961 161.473C836.914 161.668 838.428 162.547 839.502 164.109C840.576 165.965 840.771 168.309 840.088 171.141C839.404 173.875 838.086 175.779 836.133 176.854C835.059 177.342 833.887 178.709 832.617 180.955C831.445 183.104 829.98 186.57 828.223 191.355C823.535 203.953 822.656 211.961 825.586 215.379C826.074 215.867 826.611 216.209 827.197 216.404C827.783 216.502 828.857 216.502 830.42 216.404C837.451 215.721 850.537 208.201 869.678 193.846C885.596 181.932 893.555 174.412 893.555 171.287C893.555 168.162 895.02 165.867 897.949 164.402C900.977 162.938 903.857 163.182 906.592 165.135C907.666 166.209 908.252 167.625 908.35 169.383C908.545 171.043 908.252 172.557 907.471 173.924C906.982 174.705 906.299 175.486 905.42 176.268C904.541 177.049 903.613 177.781 902.637 178.465C901.758 179.051 901.074 179.344 900.586 179.344C899.805 179.344 898.193 180.125 895.752 181.688C893.311 183.152 889.6 185.789 884.619 189.598C858.057 209.324 840.918 219.92 833.203 221.385C831.348 221.873 829.883 222.117 828.809 222.117C827.734 222.117 826.562 221.873 825.293 221.385C824.609 221.092 823.926 220.75 823.242 220.359C822.461 219.871 821.875 219.383 821.484 218.895C820.508 217.82 819.727 216.307 819.141 214.354C818.457 212.4 818.115 210.545 818.115 208.787C818.115 206.834 818.457 204.148 819.141 200.73C819.824 197.215 820.703 193.748 821.777 190.33C823.34 185.35 824.463 181.541 825.146 178.904C825.83 176.268 826.172 174.217 826.172 172.752C826.172 171.092 826.562 169.285 827.344 167.332C828.125 165.379 829.053 163.914 830.127 162.938ZM848.438 146.971C847.363 149.021 845.898 150.34 844.043 150.926C842.188 151.512 840.283 151.268 838.33 150.193C836.377 148.826 835.303 147.02 835.107 144.773C835.01 142.527 835.645 140.477 837.012 138.621C838.379 136.668 840.234 135.691 842.578 135.691C845.312 135.691 847.363 136.961 848.73 139.5C849.902 141.844 849.805 144.334 848.438 146.971Z" fill="white"/>
</svg>
